<svg xmlns="http://www.w3.org/2000/svg" viewBox="0 0 500 150">
  <defs>
    <linearGradient id="goldGradient" x1="0%" y1="0%" x2="100%" y2="100%">
      <stop offset="0%" style="stop-color:#FFD700;stop-opacity:1" />
      <stop offset="100%" style="stop-color:#B8860B;stop-opacity:1" />
    </linearGradient>
  </defs>
  <!-- Elephant Head Stylized -->
  <path d="M60,40 Q90,10 120,40 Q130,60 120,80 L110,120 Q90,140 70,120 L60,80 Q50,60 60,40 M80,60 A5,5 0 1,1 90,60 A5,5 0 1,1 80,60 M100,60 A5,5 0 1,1 110,60 A5,5 0 1,1 100,60" fill="url(#goldGradient)" stroke="#333" stroke-width="2"/>
  <text x="140" y="90" font-family="'Cinzel', serif" font-size="60" fill="#333" font-weight="bold">HASTHIRAJA</text>
  <text x="145" y="120" font-family="'Lato', sans-serif" font-size="20" fill="#666" letter-spacing="5">GRAPHICS</text>
</svg>
